<svg width="14" height="14" viewBox="0 0 14 14" fill="none" xmlns="http://www.w3.org/2000/svg">
<circle cx="7" cy="7" r="6.5" stroke="#4A90E2"/>
<path d="M13.5 6.99991C13.5 7.10321 13.4377 7.2812 13.1404 7.51545C12.8488 7.74525 12.3959 7.97407 11.7916 8.17549C10.5883 8.57658 8.89421 8.83325 7 8.83325C5.10579 8.83325 3.41166 8.57658 2.20837 8.17549C1.60411 7.97407 1.15118 7.74525 0.859582 7.51545C0.562349 7.2812 0.5 7.10321 0.5 6.99991C0.5 6.89661 0.562349 6.71863 0.859582 6.48438C1.15118 6.25458 1.60411 6.02576 2.20837 5.82434C3.41166 5.42324 5.10579 5.16658 7 5.16658C8.89421 5.16658 10.5883 5.42324 11.7916 5.82434C12.3959 6.02576 12.8488 6.25458 13.1404 6.48438C13.4377 6.71863 13.5 6.89661 13.5 6.99991Z" stroke="#4A90E2"/>
<path d="M10 7C10 8.87221 9.61951 10.5424 9.02766 11.7261C8.42086 12.9397 7.67508 13.5 7 13.5C6.32492 13.5 5.57914 12.9397 4.97234 11.7261C4.38049 10.5424 4 8.87221 4 7C4 5.12779 4.38049 3.45755 4.97234 2.27386C5.57914 1.06026 6.32492 0.5 7 0.5C7.67508 0.5 8.42086 1.06026 9.02766 2.27386C9.61951 3.45755 10 5.12779 10 7Z" stroke="#4A90E2"/>
</svg>
